# xmcd
#
# Track frame offsets: 
#        150
#        16757
#        26491
#        37431
#        50550
#        70461
#        86792
#        105014
#        115733
#        130241
#        144534
#        170024
#        181145
#        199219
#        214670
#        233058
#
# Disc length: 4008 seconds
#
# Revision: 0
# Processed by: cddbd v1.5.2PL0 Copyright (c) Steve Scherf et al.
# Submitted via: ExactAudioCopy v0.99pb4
#
DISCID=e00fa610
DTITLE=Stefan Sterzinger - Sterzinger
DYEAR=2008
DGENRE=Wienerlied
TTITLE0=i bin in wien
TTITLE1=und irgendwann
TTITLE2=ringlgschbübsizza
TTITLE3=allemal. ein liebeslied
TTITLE4=trallalla
TTITLE5=ich glaub', ich bin nicht ganz normal
TTITLE6=und auf amoi
TTITLE7=heit bin i ned munta wuan
TTITLE8=der schönste mann von wien
TTITLE9=ge kum
TTITLE10=hände hoch
TTITLE11=dein ist mein ganzes herz
TTITLE12=allemal. auch ein liebeslied
TTITLE13=die zeit ändert viel
TTITLE14=seelichkeit
TTITLE15=Data
EXTD=
EXTT0=
EXTT1=
EXTT2=
EXTT3=
EXTT4=
EXTT5=
EXTT6=
EXTT7=
EXTT8=
EXTT9=
EXTT10=
EXTT11=
EXTT12=
EXTT13=
EXTT14=
EXTT15=
PLAYORDER=
